<svg width="29" height="32" viewBox="0 0 29 32" fill="none" xmlns="http://www.w3.org/2000/svg">
<path d="M18.9211 15.113C18.8942 15.4282 18.7753 15.7287 18.579 15.978C18.3828 16.2272 18.1176 16.4144 17.8158 16.5166C17.5141 16.6189 17.1889 16.6318 16.8799 16.5537C16.5709 16.4757 16.2915 16.3101 16.0758 16.0772C15.8601 15.8442 15.7175 15.554 15.6653 15.242C15.6131 14.93 15.6536 14.6097 15.7819 14.3201C15.9101 14.0306 16.1206 13.7843 16.3877 13.6115C16.6547 13.4386 16.9666 13.3466 17.2855 13.3467C17.5098 13.3561 17.7301 13.4092 17.9337 13.5031C18.1374 13.5969 18.3203 13.7297 18.4722 13.8937C18.6241 14.0577 18.742 14.2498 18.819 14.4591C18.896 14.6683 18.9307 14.8905 18.9211 15.113ZM11.4326 13.3467C10.9885 13.3868 10.5756 13.5901 10.2749 13.9167C9.97426 14.2433 9.80756 14.6697 9.80756 15.112C9.80756 15.5543 9.97426 15.9806 10.2749 16.3072C10.5756 16.6339 10.9885 16.8372 11.4326 16.8773C11.6569 16.8679 11.8772 16.8148 12.0808 16.7209C12.2844 16.627 12.4674 16.4943 12.6193 16.3303C12.7712 16.1662 12.889 15.9741 12.966 15.7649C13.0431 15.5557 13.0778 15.3335 13.0682 15.1109C13.0789 14.8883 13.045 14.6657 12.9683 14.4561C12.8917 14.2465 12.7739 14.0541 12.6218 13.89C12.4696 13.7259 12.2862 13.5934 12.0821 13.5001C11.8779 13.4069 11.6572 13.3547 11.4326 13.3467ZM28.3669 3.27619V31.8151C24.3262 28.2699 25.6192 29.4461 20.9268 25.1189L21.7677 28.0614H3.59081C2.71689 28.0592 1.87962 27.7128 1.26305 27.0985C0.646479 26.4841 0.301066 25.6521 0.30274 24.7852V3.27619C0.301066 2.40931 0.646479 1.57724 1.26305 0.9629C1.87962 0.348554 2.71689 0.00220984 3.59081 0L25.081 0C25.9545 0.00276155 26.7913 0.349349 27.4074 0.963635C28.0235 1.57792 28.3686 2.40967 28.3669 3.27619ZM23.7965 18.3517C23.7433 15.1266 22.9526 11.9556 21.4839 9.07782C20.1918 8.07213 18.6168 7.48918 16.9764 7.40949L16.7515 7.66391C18.2122 8.04935 19.5737 8.73813 20.7459 9.68468C18.9162 8.70639 16.8851 8.15626 14.8081 8.07638C12.7311 7.9965 10.6632 8.38898 8.76258 9.2238C8.16972 9.49491 7.81652 9.68468 7.81652 9.68468C9.05074 8.69061 10.4907 7.97858 12.0338 7.59926L11.8741 7.4074C10.2337 7.4871 8.65868 8.07005 7.36662 9.07574C5.90197 11.9551 5.11554 15.1269 5.06666 18.3517C5.6191 19.1222 6.35402 19.7462 7.20674 20.1688C8.05946 20.5914 9.00383 20.7995 9.95671 20.7749C9.95671 20.7749 10.5496 20.0596 11.031 19.4549C9.90348 19.173 8.91071 18.5091 8.22438 17.578C8.45984 17.7427 8.85508 17.9534 8.88241 17.9763C10.4044 18.7994 12.092 19.2763 13.8228 19.3726C15.5536 19.4689 17.2843 19.1822 18.8896 18.5331C19.5379 18.2904 20.1564 17.9755 20.7333 17.5947C20.0212 18.546 18.9927 19.2167 17.83 19.4882C18.3114 20.093 18.8812 20.777 18.8812 20.777C19.8378 20.8015 20.7859 20.5932 21.6428 20.1705C22.4996 19.7477 23.239 19.1232 23.7965 18.3517Z" fill="#3B8CF6"/>
</svg>
