<svg width="2009" height="120" viewBox="0 0 2009 120" fill="none" xmlns="http://www.w3.org/2000/svg">
<path d="M0 6H2009V34.5C1975.77 38.9731 1975.77 87.0269 2009 91.5V120H0V91.5C33.1574 86.9659 33.1574 39.0341 0 34.5V6Z" fill="url(#paint0_linear_19_461)"/>
<path d="M0 0H2009V28.5C1975.77 32.9731 1975.77 81.0269 2009 85.5V114H0V85.5C33.1574 80.9659 33.1574 33.0341 0 28.5V0Z" fill="url(#paint1_linear_19_461)"/>
<line x1="198" y1="120" x2="198" y2="-1.74846e-07" stroke="#8F3521" stroke-width="8" stroke-dasharray="18 13"/>
<line x1="786" y1="120" x2="786" y2="-1.74846e-07" stroke="#8F3521" stroke-width="8" stroke-dasharray="18 13"/>
<line x1="1379" y1="120" x2="1379" y2="-1.74846e-07" stroke="#8F3521" stroke-width="8" stroke-dasharray="18 13"/>
<defs>
<linearGradient id="paint0_linear_19_461" x1="144.908" y1="-106.893" x2="2024.82" y2="45.5804" gradientUnits="userSpaceOnUse">
<stop stop-color="#9F4938"/>
<stop offset="1" stop-color="#A53117"/>
</linearGradient>
<linearGradient id="paint1_linear_19_461" x1="144.908" y1="-112.893" x2="2024.82" y2="39.5804" gradientUnits="userSpaceOnUse">
<stop stop-color="#DF704D"/>
<stop offset="1" stop-color="#E2645C"/>
</linearGradient>
</defs>
</svg>
