<svg width="25" height="41" viewBox="0 0 25 41" fill="none" xmlns="http://www.w3.org/2000/svg">
<path fill-rule="evenodd" clip-rule="evenodd" d="M3.22179 40.2563C2.8839 40.5663 2.43183 40.7397 1.96126 40.7397C1.4907 40.7397 1.03856 40.5663 0.700668 40.2563C0.534864 40.1036 0.403078 39.9209 0.31309 39.7192C0.223102 39.5174 0.176758 39.3006 0.176758 39.0816C0.176758 38.8626 0.223102 38.6459 0.31309 38.4441C0.403078 38.2423 0.534864 38.0597 0.700668 37.9069L19.6701 20.2266L0.706445 3.15824C0.541266 3.0063 0.410009 2.82458 0.320347 2.62375C0.230684 2.42292 0.184438 2.20712 0.184438 1.98909C0.184438 1.77106 0.230684 1.55525 0.320347 1.35442C0.410009 1.15359 0.541266 0.971744 0.706445 0.819798C1.04161 0.504839 1.49477 0.328125 1.96704 0.328125C2.43931 0.328125 2.8924 0.504839 3.22757 0.819798L24.4237 20.2266L3.22179 40.2563Z" fill="#D5E8FF"/>
</svg>
