<svg width="203" height="101" viewBox="0 0 203 101" fill="none" xmlns="http://www.w3.org/2000/svg">
<path d="M13.161 29.0315C13.1098 15.5238 21.7913 8.03248 37.7298 7.97635C49.1993 7.93552 51.2493 15.4064 51.2493 18.1212C51.2493 23.3212 43.8592 28.8376 43.8592 28.8376C43.8592 28.8376 44.2692 32.078 50.6138 32.0525C56.9584 32.027 63.139 27.8578 63.1032 17.4221C63.0724 5.43503 50.46 -0.0456412 37.9911 0.000286181C27.562 0.0360075 -0.0971167 1.49548 0.000256441 28.8376C0.0925047 53.123 46.1244 55.2663 46.1602 70.8153C46.2217 87.7013 27.1981 92.2481 20.7612 92.2481C14.3244 92.2481 11.7055 87.7115 11.6953 85.2212C11.6492 71.545 25.3173 67.7381 25.3173 67.7381C25.3173 66.7175 24.5178 62.1707 19.2238 62.1911C5.5864 62.2166 0.154003 73.8924 0.195003 85.2926C0.230877 94.9884 7.11362 101.041 17.5069 101C37.3813 100.928 59.7925 91.2734 59.7105 69.8304C59.6387 49.7754 13.2174 44.5397 13.161 29.0315Z" fill="white"/>
<path d="M202.623 82.7614C202.465 82.3787 202.019 82.4706 201.429 82.9553C199.174 84.8078 194.019 90.0537 181.955 90.0996C159.959 90.1813 156.141 54.0823 156.141 54.0823C156.141 54.0823 172.904 41.6207 175.523 36.5942C178.142 31.5677 169.809 30.4705 169.809 30.4705C169.809 30.4705 158.083 44.6774 149.77 48.8415C150.672 42.6617 156.822 28.5773 157.176 20.4787C157.529 12.3802 147.382 14.3551 145.763 15.1308C145.763 18.6672 136.799 50.7704 133.535 68.4168C131.613 71.4786 128.866 74.9793 126.406 74.9844C124.981 74.9844 124.458 72.3563 124.443 68.5903C124.443 63.3647 127.333 54.9907 127.313 49.9029C127.313 46.3818 125.688 46.1726 124.289 46.1777C123.987 46.1777 122.306 46.2236 121.998 46.2236C118.411 46.2236 119.59 43.1618 116.361 43.1924C106.48 43.2281 93.8935 53.97 93.3451 70.1824C90.0088 72.3818 85.34 75.1528 82.957 75.163C80.456 75.163 79.8359 72.8615 79.8308 70.8713C79.8308 67.3757 85.5092 46.6063 85.5092 46.6063C85.5092 46.6063 92.7404 44.759 95.8973 44.1518C98.2855 43.6874 98.9723 43.5139 99.8999 42.3657C100.827 41.2175 102.642 38.8446 104.107 36.7115C105.573 34.5785 104.133 32.9302 101.422 32.9404C97.8653 32.9404 88.3484 35.1857 88.3484 35.1857C88.3484 35.1857 92.9198 15.5594 92.9147 15.1614C92.9095 14.7633 92.4022 14.5541 91.6283 14.5592C89.8961 14.5592 86.8058 15.488 84.8276 16.1922C81.7987 17.2689 79.3337 20.9635 78.8365 22.6833C78.3394 24.403 74.916 37.8699 74.916 37.8699C74.916 37.8699 56.5842 44.1722 54.0782 45.1163C54.0034 45.1418 53.9385 45.1899 53.8926 45.254C53.8466 45.318 53.8219 45.3948 53.8219 45.4735C53.8219 45.6368 55.918 53.6383 60.2178 53.6077C63.2927 53.6077 72.3279 49.9233 72.3279 49.9233C72.3279 49.9233 67.6848 68.2943 67.7155 74.418C67.7155 78.3473 69.5759 82.9502 77.2837 82.9247C84.4586 82.9247 90.7366 79.2352 94.2523 76.6684C96.1741 81.5112 100.715 82.838 103.815 82.8278C110.765 82.8278 116.115 77.3063 116.802 76.5663C117.704 78.6892 119.831 82.7665 124.689 82.7512C127.436 82.7512 130.28 79.6894 132.376 76.7194C132.337 77.3366 132.345 77.956 132.402 78.5718C133.243 86.1856 144.594 81.7102 145.214 80.6488C145.599 75.1426 145.358 63.8853 147.567 56.9349C150.498 80.6437 161.619 96.5907 181.611 96.5192C192.789 96.4784 198.523 93.2788 200.896 90.6405C201.849 89.5911 202.51 88.3119 202.813 86.9298C203.116 85.5477 203.05 84.1107 202.623 82.7614ZM106.701 74.9436C97.1017 74.9793 109.637 50.204 117.827 50.1734C117.837 53.3679 117.658 74.9078 106.701 74.9436Z" fill="white"/>
<path d="M184.63 82.5369C193.296 82.5063 200.005 76.8266 201.235 74.9793C202.823 72.5758 199.39 68.9475 198.298 69.0087C195.561 71.6164 192.702 74.7701 186.28 74.7905C178.721 74.8211 180.433 66.5388 180.433 66.5388C180.433 66.5388 194.982 68.4117 200.83 57.9964C202.7 54.6641 202.777 50.056 202.024 48.0709C201.27 46.0858 197.037 42.4116 190.303 42.9679C182.032 43.6619 171.607 52.2503 169.317 62.5636C167.477 70.8611 170.957 82.5879 184.63 82.5369ZM193.855 47.7852C195.218 47.7392 195.095 49.9744 194.731 52.3116C194.219 55.4805 189.847 63.5383 181.504 63.2219C182.083 58.5322 188.289 47.9689 193.87 47.7852H193.855Z" fill="white"/>
</svg>
