<svg width="35" height="28" viewBox="0 0 35 28" fill="none" xmlns="http://www.w3.org/2000/svg">
<path d="M30.6813 7.28764C30.7021 7.58882 30.7021 7.88999 30.7021 8.1891C30.719 10.7851 30.2184 13.3586 29.2293 15.7603C28.2401 18.1619 26.7822 20.3439 24.9402 22.1796C23.0981 24.0153 20.9085 25.4682 18.4985 26.4538C16.0885 27.4395 13.506 27.9384 10.901 27.9216C7.10896 27.9355 3.39365 26.8572 0.202148 24.8163C0.760686 24.8774 1.32233 24.9058 1.8842 24.9015C5.0178 24.9094 8.06273 23.8653 10.5279 21.9375C9.07491 21.9116 7.6663 21.4341 6.49889 20.5717C5.33148 19.7092 4.46359 18.5048 4.01647 17.1269C4.45153 17.1957 4.89118 17.2318 5.33168 17.2349C5.94994 17.2329 6.56549 17.1534 7.16381 16.9981C5.5872 16.68 4.16972 15.8278 3.15219 14.5862C2.13466 13.3446 1.57983 11.7903 1.58197 10.1873V10.1021C2.5468 10.6387 3.62522 10.9405 4.72931 10.9828C3.25122 10.0007 2.20509 8.49333 1.80454 6.76855C1.404 5.04377 1.67926 3.23167 2.57411 1.7023C4.32216 3.84919 6.50363 5.60584 8.97698 6.85826C11.4503 8.11069 14.1603 8.8309 16.931 8.97217C16.8191 8.44977 16.7611 7.91733 16.758 7.38318C16.7596 5.99168 17.1805 4.63275 17.9663 3.48249C18.7521 2.33223 19.8664 1.44367 21.1649 0.931983C22.4634 0.420292 23.8862 0.309059 25.2489 0.612696C26.6116 0.916334 27.8513 1.62084 28.8075 2.63492C30.3667 2.33543 31.8619 1.76825 33.2263 0.958693C32.707 2.56239 31.6182 3.9221 30.1644 4.78264C31.5474 4.62585 32.899 4.2639 34.1746 3.70878C33.2203 5.08888 32.0393 6.29878 30.6813 7.28764Z" fill="#3B8CF6"/>
</svg>
