<svg width="43" height="33" viewBox="0 0 43 33" fill="none" xmlns="http://www.w3.org/2000/svg">
<path d="M38.5784 8.69806C38.6048 9.05221 38.6048 9.40635 38.6048 9.75806C38.6261 12.8106 37.9925 15.8368 36.7405 18.6608C35.4885 21.4849 33.6432 24.0506 31.3117 26.2092C28.9801 28.3677 26.2087 30.0761 23.1583 31.2351C20.1078 32.3942 16.8391 32.9808 13.5419 32.961C8.74216 32.9774 4.03958 31.7094 0 29.3096C0.706958 29.3814 1.41785 29.4148 2.12903 29.4097C6.09531 29.4191 9.94938 28.1913 13.0696 25.9244C11.2305 25.894 9.44761 25.3325 7.96998 24.3184C6.49235 23.3042 5.39383 21.8881 4.8279 20.2678C5.37858 20.3487 5.93505 20.3912 6.49261 20.3948C7.27516 20.3925 8.05428 20.2989 8.81158 20.1164C6.81602 19.7423 5.02188 18.7402 3.73396 17.2803C2.44604 15.8203 1.74378 13.9926 1.74649 12.1077V12.0075C2.9677 12.6385 4.33269 12.9933 5.73017 13.0431C3.8593 11.8883 2.53518 10.1158 2.0282 8.08768C1.52122 6.05955 1.86963 3.92875 3.00227 2.1304C5.21483 4.65488 7.97598 6.72047 11.1066 8.19317C14.2371 9.66586 17.6672 10.5127 21.1742 10.6789C21.0326 10.0646 20.9592 9.4385 20.9552 8.8104C20.9572 7.17418 21.4901 5.57625 22.4846 4.22368C23.4792 2.87112 24.8897 1.82629 26.5332 1.22461C28.1768 0.622923 29.9776 0.492126 31.7024 0.849166C33.4272 1.20621 34.9964 2.03461 36.2066 3.22704C38.1802 2.87488 40.0727 2.20796 41.7996 1.25601C41.1423 3.14176 39.7643 4.74061 37.9241 5.7525C39.6746 5.56813 41.3855 5.14252 43 4.48978C41.792 6.11259 40.2972 7.53529 38.5784 8.69806Z" fill="#45A2F8"/>
</svg>
