<svg width="27" height="24" viewBox="0 0 27 24" fill="none" xmlns="http://www.w3.org/2000/svg">
<path d="M2.13861 24H24.8717C26.4613 24 27.4847 22.3515 26.7661 20.9598L15.3996 1.15596C14.6155 -0.385319 12.3729 -0.385319 11.589 1.15596L0.222409 20.9598C-0.474391 22.3515 0.549034 24 2.13861 24ZM15.2909 19.3969C15.2909 20.4246 14.5288 21.2168 13.44 21.2168C12.3513 21.2168 11.5892 20.4246 11.5892 19.3969V19.3541C11.5892 18.3265 12.3513 17.5343 13.44 17.5343C14.5288 17.5343 15.2909 18.3265 15.2909 19.3541V19.3969ZM12.4382 6.01594H14.5723C15.1601 6.01594 15.5087 6.50836 15.4433 7.12924L14.5068 15.1792C14.4415 15.7573 14.0495 16.1213 13.5052 16.1213C12.9608 16.1213 12.5688 15.7573 12.5035 15.1792L11.567 7.12924C11.5019 6.50836 11.8505 6.01594 12.4382 6.01594Z" fill="#B7F037"/>
</svg>
